<?xml version="1.0" encoding="UTF-8" standalone="no"?>
<!-- Generator: Adobe Illustrator 23.0.3, SVG Export Plug-In . SVG Version: 6.00 Build 0)  -->

<svg
   version="1.1"
   id="Lag_1"
   x="0px"
   y="0px"
   viewBox="0 0 211.16145 79.130163"
   xml:space="preserve"
   sodipodi:docname="Fablab Logo.svg"
   width="211.16145"
   height="79.130165"
   inkscape:version="1.4 (e7c3feb1, 2024-10-09)"
   xmlns:inkscape="http://www.inkscape.org/namespaces/inkscape"
   xmlns:sodipodi="http://sodipodi.sourceforge.net/DTD/sodipodi-0.dtd"
   xmlns="http://www.w3.org/2000/svg"
   xmlns:svg="http://www.w3.org/2000/svg"><defs
   id="defs26" /><sodipodi:namedview
   id="namedview26"
   pagecolor="#505050"
   bordercolor="#eeeeee"
   borderopacity="1"
   inkscape:showpageshadow="0"
   inkscape:pageopacity="0"
   inkscape:pagecheckerboard="0"
   inkscape:deskcolor="#505050"
   inkscape:zoom="2.3514835"
   inkscape:cx="129.28009"
   inkscape:cy="122.26325"
   inkscape:window-width="1728"
   inkscape:window-height="986"
   inkscape:window-x="0"
   inkscape:window-y="38"
   inkscape:window-maximized="0"
   inkscape:current-layer="Lag_1" />
<style
   type="text/css"
   id="style1">
	.st0{fill:none;stroke:#000000;stroke-width:0.5;stroke-miterlimit:10;}
</style>
<g
   id="g26"
   style="fill:#ffffff;stroke:none"
   transform="translate(-0.73854961,-65.069838)">
	<path
   class="st0"
   d="m 30,67.5 -6.9,4 4.6,2.7 c 4.3,-0.8 9,0.3 11.6,2.9 3.4,3.3 2.1,7.9 -2.8,10.2 -4.9,2.3 -11.6,1.5 -15,-1.9 -1.5,-1.5 -2.1,-3.3 -1.8,-5 L 13.6,76.9 13.7,76.8 7.8,80.2 5.1,78.7 C 13.6,65.5 31,61.1 44.7,69 c 4.3,2.5 7.7,5.8 10.1,9.7 l -2.7,1.6 z"
   id="path1"
   style="fill:#ffffff;stroke:none" />
	<path
   class="st0"
   d="m 55.4,109.1 c -5.3,9.1 -14.6,14.3 -24.4,14.6 v -3 L 53.2,107.9 V 100 l -4.6,2.7 c -1.5,4.1 -4.7,7.7 -8.3,8.6 -4.6,1.2 -7.9,-2.1 -7.4,-7.6 0.5,-5.4 4.5,-10.8 9.1,-12 2.1,-0.6 3.9,-0.2 5.2,0.9 l 6.1,-3.5 v -7 l 2.6,-1.5 c 4.6,8.6 4.8,19.3 -0.5,28.5 z"
   id="path2"
   style="fill:#ffffff;stroke:none" />
	<path
   class="st0"
   d="m 29,120.7 v 3 C 24.4,123.6 19.7,122.3 15.4,119.8 1.6,111.8 -3.2,94.4 4.2,80.5 L 6.8,82 v 25.8 l 6.9,4 v -5.3 C 10.9,103.2 9.5,98.6 10.4,95 c 1.2,-4.6 5.8,-5.8 10.3,-2.7 4.5,3.1 7.1,9.3 5.9,13.9 -0.6,2.1 -1.8,3.5 -3.4,4.1 v 7 z"
   id="path3"
   style="fill:#ffffff;stroke:none" />
	<polygon
   class="st0"
   points="209.8,123.7 209.8,113.3 201.4,123.7 198.4,123.7 198.4,112.5 188.9,123.7 186.3,123.7 186.3,112.2 175.9,123.7 173,123.7 184.8,110.7 188.4,110.7 188.4,121 197.2,110.7 200.5,110.7 200.5,121.4 209.1,110.7 211.9,110.7 211.9,123.7 "
   id="polygon3"
   style="fill:#ffffff;stroke:none" />
	<g
   id="g19"
   style="fill:#ffffff;stroke:none">
		<path
   class="st0"
   d="m 12.8,141.8 c -0.2,0.2 -0.4,0.3 -0.7,0.3 H 3.8 c -0.3,0 -0.5,-0.1 -0.7,-0.3 -0.2,-0.2 -0.3,-0.4 -0.3,-0.7 v -1.7 l 2.1,0.2 v 0.6 h 6.2 v -1.4 H 3.8 c -0.3,0 -0.5,-0.1 -0.7,-0.3 -0.2,-0.2 -0.3,-0.4 -0.3,-0.7 v -3 c 0,-0.3 0.1,-0.6 0.3,-0.7 0.2,-0.2 0.4,-0.3 0.7,-0.3 h 8.3 c 0.3,0 0.6,0.1 0.7,0.3 0.2,0.2 0.3,0.4 0.3,0.7 v 1.7 L 11,136.3 v -0.6 H 4.8 V 137 H 12 c 0.3,0 0.6,0.1 0.7,0.3 0.2,0.2 0.3,0.4 0.3,0.7 v 3.1 c 0.1,0.3 0,0.5 -0.2,0.7 z"
   id="path4"
   style="fill:#ffffff;stroke:none" />
		<path
   class="st0"
   d="m 27.3,141.8 c -0.2,0.2 -0.4,0.3 -0.7,0.3 h -7.2 v 2.1 h -2.1 v -9.3 c 0,-0.3 0.1,-0.5 0.3,-0.7 0.2,-0.2 0.4,-0.3 0.7,-0.3 h 8.3 c 0.3,0 0.6,0.1 0.7,0.3 0.2,0.2 0.3,0.4 0.3,0.7 v 6.2 c 0,0.3 -0.1,0.5 -0.3,0.7 z m -1.7,-6 h -6.2 v 4.2 h 6.2 z"
   id="path5"
   style="fill:#ffffff;stroke:none" />
		<path
   class="st0"
   d="m 31.8,133.8 v -2.1 h 2.1 v 2.1 z m 0,8.3 v -7.2 h 2.1 v 7.2 z"
   id="path6"
   style="fill:#ffffff;stroke:none" />
		<path
   class="st0"
   d="m 46.3,142.1 v -6.3 H 40 v 6.3 h -2 v -7.2 c 0,-0.3 0.1,-0.6 0.3,-0.7 0.2,-0.2 0.4,-0.3 0.7,-0.3 h 8.3 c 0.3,0 0.6,0.1 0.7,0.3 0.2,0.2 0.3,0.4 0.3,0.7 v 7.2 z"
   id="path7"
   style="fill:#ffffff;stroke:none" />
		<path
   class="st0"
   d="m 62.5,141.8 c -0.2,0.2 -0.4,0.3 -0.7,0.3 h -8.3 c -0.3,0 -0.5,-0.1 -0.7,-0.3 -0.2,-0.2 -0.3,-0.4 -0.3,-0.7 v -6.2 c 0,-0.3 0.1,-0.6 0.3,-0.7 0.2,-0.2 0.4,-0.3 0.7,-0.3 h 7.3 v -2.1 h 2.1 v 9.3 c -0.1,0.3 -0.2,0.5 -0.4,0.7 z m -1.8,-6 h -6.2 v 4.2 h 6.2 z"
   id="path8"
   style="fill:#ffffff;stroke:none" />
		<path
   class="st0"
   d="m 77,141.8 c -0.2,0.2 -0.4,0.3 -0.7,0.3 H 68 c -0.3,0 -0.5,-0.1 -0.7,-0.3 -0.2,-0.2 -0.3,-0.4 -0.3,-0.7 v -6.2 c 0,-0.3 0.1,-0.6 0.3,-0.7 0.2,-0.2 0.4,-0.3 0.7,-0.3 h 8.3 c 0.3,0 0.6,0.1 0.7,0.3 0.2,0.2 0.3,0.4 0.3,0.7 v 3 c 0,0.3 -0.1,0.5 -0.3,0.7 -0.2,0.2 -0.5,0.3 -0.7,0.3 H 69 v 1.4 h 6.2 v -0.6 l 2.1,-0.2 v 1.7 c 0,0.2 -0.1,0.4 -0.3,0.6 z m -1.8,-6.1 H 69 v 1.3 h 6.2 z"
   id="path9"
   style="fill:#ffffff;stroke:none" />
		<path
   class="st0"
   d="m 89.7,136.9 v -1.1 h -6.2 v 6.3 h -2.1 v -8.3 h 9.3 c 0.3,0 0.6,0.1 0.7,0.3 0.2,0.2 0.3,0.5 0.3,0.8 v 2.3 z"
   id="path10"
   style="fill:#ffffff;stroke:none" />
		<path
   class="st0"
   d="m 95.1,133.8 v -2.1 h 2.1 v 2.1 z m 0,8.3 v -7.2 h 2.1 v 7.2 z"
   id="path11"
   style="fill:#ffffff;stroke:none" />
		<path
   class="st0"
   d="m 109.6,142.1 v -4.2 h -6.2 v 4.2 h -2.1 v -10.4 h 2.1 v 4.2 h 6.2 v -4.2 h 2.1 v 10.4 z"
   id="path12"
   style="fill:#ffffff;stroke:none" />
		<path
   class="st0"
   d="m 124.3,142.1 -1,-2.2 h -4.7 l -1,2.2 h -2.3 l 4.6,-10.4 h 2.1 l 4.6,10.4 z m -3.3,-7.6 -1.5,3.4 h 3 z"
   id="path13"
   style="fill:#ffffff;stroke:none" />
		<path
   class="st0"
   d="m 130.3,142.1 v -10.4 h 2.1 v 8.3 h 6.2 v -2 l 2.1,-0.2 v 4.4 h -10.4 z"
   id="path14"
   style="fill:#ffffff;stroke:none" />
		<path
   class="st0"
   d="m 144.2,142.1 v -10.4 h 2.1 v 8.3 h 6.2 v -2 l 2.1,-0.2 v 4.4 h -10.4 z"
   id="path15"
   style="fill:#ffffff;stroke:none" />
		<path
   class="st0"
   d="m 158,142.1 v -10.4 h 10.4 v 2 h -8.3 v 2.1 h 6.2 v 2 h -6.2 v 2.1 h 8.3 v 2 H 158 Z"
   id="path16"
   style="fill:#ffffff;stroke:none" />
		<path
   class="st0"
   d="m 179.9,142.1 -3.1,-4.1 h -2.6 v 4.1 h -2.1 v -10.4 h 9.3 c 0.3,0 0.6,0.1 0.7,0.3 0.2,0.2 0.3,0.4 0.3,0.7 v 4.1 c 0,0.3 -0.1,0.5 -0.3,0.7 -0.2,0.2 -0.4,0.3 -0.7,0.3 h -2.1 l 3.1,4.1 h -2.5 z m 0.5,-8.3 h -6.2 v 2.2 h 6.2 z"
   id="path17"
   style="fill:#ffffff;stroke:none" />
		<path
   class="st0"
   d="m 194.9,142.1 -6.2,-7.2 v 7.2 h -2.1 v -10.4 h 2.1 l 6.2,7.2 v -7.2 h 2.1 v 10.4 z"
   id="path18"
   style="fill:#ffffff;stroke:none" />
		<path
   class="st0"
   d="m 201.1,142.1 v -10.4 h 10.4 v 2 h -8.3 v 2.1 h 6.2 v 2 h -6.2 v 2.1 h 8.3 v 2 h -10.4 z"
   id="path19"
   style="fill:#ffffff;stroke:none" />
	</g>
	<g
   id="g25"
   style="fill:#ffffff;stroke:none">
		<path
   class="st0"
   d="m 69.7,87.5 v 4.7 h 13.6 v 4.4 H 69.7 v 9.1 H 65.2 V 83.1 h 22.7 v 4.4 z"
   id="path20"
   style="fill:#ffffff;stroke:none" />
		<path
   class="st0"
   d="M 104.6,105.8 102.4,101 H 92.1 l -2.2,4.8 h -5 l 10,-22.7 h 4.5 l 10,22.7 z m -7.4,-16.7 -3.3,7.5 h 6.7 z"
   id="path21"
   style="fill:#ffffff;stroke:none" />
		<path
   class="st0"
   d="m 134.1,105.1 c -0.4,0.4 -1,0.6 -1.6,0.6 H 112.1 V 83.1 h 20.4 c 0.7,0 1.2,0.2 1.6,0.6 0.4,0.4 0.6,1 0.6,1.6 v 6.8 c 0,0.6 -0.2,1.2 -0.6,1.6 -0.4,0.4 -1,0.7 -1.6,0.7 0.7,0 1.2,0.2 1.6,0.6 0.4,0.4 0.6,1 0.6,1.6 v 6.8 c 0.1,0.7 -0.1,1.3 -0.6,1.7 z m -3.9,-17.6 h -13.6 v 4.7 h 13.6 z m 0,9.1 h -13.6 v 4.7 h 13.6 z"
   id="path22"
   style="fill:#ffffff;stroke:none" />
		<path
   class="st0"
   d="M 138.2,105.8 V 83.1 h 4.5 v 18.3 h 13.6 v -4.6 l 4.5,-0.5 v 9.6 h -22.6 z"
   id="path23"
   style="fill:#ffffff;stroke:none" />
		<path
   class="st0"
   d="m 181.7,105.8 -2.2,-4.8 h -10.3 l -2.2,4.8 h -5 l 10,-22.7 h 4.5 l 10,22.7 z m -7.3,-16.7 -3.3,7.5 h 6.7 z"
   id="path24"
   style="fill:#ffffff;stroke:none" />
		<path
   class="st0"
   d="m 211.2,105.1 c -0.4,0.4 -1,0.6 -1.6,0.6 H 189.2 V 83.1 h 20.4 c 0.7,0 1.2,0.2 1.6,0.6 0.4,0.4 0.6,1 0.6,1.6 v 6.8 c 0,0.6 -0.2,1.2 -0.6,1.6 -0.4,0.4 -1,0.7 -1.6,0.7 0.7,0 1.2,0.2 1.6,0.6 0.4,0.4 0.6,1 0.6,1.6 v 6.8 c 0.1,0.7 -0.1,1.3 -0.6,1.7 z m -3.9,-17.6 h -13.6 v 4.7 h 13.6 z m 0,9.1 h -13.6 v 4.7 h 13.6 z"
   id="path25"
   style="fill:#ffffff;stroke:none" />
	</g>
</g>
</svg>
